<svg width="18" height="18" viewBox="0 0 18 18" fill="none" xmlns="http://www.w3.org/2000/svg">
<path d="M0.0949745 17.4247L5.14467 12.1731C3.85667 10.8814 3.05872 9.10059 3.05872 7.13665C3.05872 3.2013 6.26002 0 10.1954 0C14.1307 0 17.332 3.2013 17.332 7.13665C17.332 11.072 14.1307 14.2733 10.1954 14.2733C8.46797 14.2733 6.88261 13.6558 5.64695 12.6312L0.585024 17.8957C0.518415 17.9653 0.429376 18 0.339998 18C0.255038 18 0.170419 17.9684 0.10449 17.9052C-0.0307663 17.775 -0.0348446 17.5599 0.0949745 17.4247ZM10.1954 13.5936C13.7559 13.5936 16.6523 10.6972 16.6523 7.13665C16.6523 3.57614 13.7559 0.679681 10.1954 0.679681C6.63487 0.679681 3.73841 3.57614 3.73841 7.13665C3.73841 10.6972 6.63521 13.5936 10.1954 13.5936Z" fill="#1d1c1c"/>
</svg>
