<svg width="170" height="170" viewBox="0 0 170 170" fill="none" xmlns="http://www.w3.org/2000/svg">
<path d="M84.934 0.777786C84.5552 0.777786 84.248 2.12718 84.248 3.79133V18.8587C84.248 20.5229 84.5552 21.8723 84.934 21.8723C85.3129 21.8723 85.62 20.5229 85.62 18.8587V3.79133C85.62 2.12718 85.3129 0.777786 84.934 0.777786Z" fill="#EFF9F0"/>
<path d="M144.925 25.9589C144.657 25.691 143.485 26.428 142.309 27.6047L131.654 38.259C130.478 39.4357 129.741 40.6071 130.008 40.875C130.276 41.1428 131.448 40.4059 132.624 39.2291L143.279 28.5749C144.455 27.3981 145.192 26.2267 144.925 25.9589Z" fill="#EFF9F0"/>
<path d="M128.637 128.859C128.905 128.591 130.076 129.328 131.253 130.505L141.907 141.159C143.084 142.336 143.821 143.507 143.553 143.775C143.285 144.043 142.114 143.306 140.937 142.129L130.283 131.475C129.106 130.298 128.369 129.127 128.637 128.859Z" fill="#EFF9F0"/>
<path d="M166.298 84.4698H151.23C149.566 84.4698 148.217 84.777 148.217 85.1558C148.217 85.5347 149.566 85.8418 151.23 85.8418H166.298C167.962 85.8418 169.311 85.5347 169.311 85.1558C169.311 84.777 167.962 84.4698 166.298 84.4698Z" fill="#EFF9F0"/>
<path d="M25.7366 25.9589C26.0045 25.691 27.1758 26.428 28.3526 27.6047L39.0069 38.259C40.1836 39.4357 40.9206 40.6071 40.6527 40.8749C40.3848 41.1428 39.2134 40.4059 38.0367 39.2291L27.3824 28.5749C26.2057 27.3981 25.4687 26.2267 25.7366 25.9589Z" fill="#EFF9F0"/>
<path d="M84.934 148.439C84.5552 148.439 84.248 149.789 84.248 151.453V166.52C84.248 168.184 84.5552 169.534 84.934 169.534C85.3129 169.534 85.62 168.184 85.62 166.52V151.453C85.62 149.789 85.3129 148.439 84.934 148.439Z" fill="#EFF9F0"/>
<path d="M18.6366 84.4698H3.56921C1.90505 84.4698 0.555664 84.777 0.555664 85.1558C0.555664 85.5347 1.90505 85.8418 3.56921 85.8418H18.6366C20.3008 85.8418 21.6502 85.5347 21.6502 85.1558C21.6502 84.777 20.3008 84.4698 18.6366 84.4698Z" fill="#EFF9F0"/>
<path d="M40.653 130.231C40.3852 129.963 39.2138 130.7 38.0371 131.877L27.3828 142.531C26.2061 143.708 25.4691 144.879 25.737 145.147C26.0048 145.415 27.1762 144.678 28.3529 143.501L39.0072 132.847C40.184 131.67 40.9209 130.499 40.653 130.231Z" fill="#EFF9F0"/>
<path d="M84.9333 131.68C111.687 131.68 133.375 109.992 133.375 83.2382C133.375 56.4843 111.687 34.7961 84.9333 34.7961C58.1795 34.7961 36.4912 56.4843 36.4912 83.2382C36.4912 109.992 58.1795 131.68 84.9333 131.68Z" stroke="#EFF9F0"/>
</svg>
