<svg width="36" height="29" viewBox="0 0 36 29" fill="none" xmlns="http://www.w3.org/2000/svg">
<path d="M28.7998 8.45949C28.5124 8.45972 28.2253 8.47718 27.9403 8.5114C27.1659 5.97145 24.8386 4.23622 22.2 4.23056C21.5433 4.22985 20.8912 4.33959 20.2704 4.55504C18.7338 1.20966 15.0921 -0.608636 11.5172 0.18476C7.94222 0.978391 5.39738 4.16944 5.39995 7.85535C5.40042 8.49229 5.47894 9.12639 5.63409 9.74374C3.53198 10.0456 1.70502 11.3529 0.730959 13.2527C-0.242871 15.1521 -0.243809 17.4091 0.729084 19.3091C-0.321387 21.3705 -0.231621 23.8335 0.966741 25.8113C2.16534 27.7894 4.29886 28.9972 6.59996 29H28.7998C31.2556 29.0052 33.5435 27.7474 34.8673 25.6647C36.1906 23.5821 36.3661 20.9634 35.3323 18.7208C35.7699 17.7778 35.9979 16.75 35.9998 15.7091C35.9958 11.7069 32.7745 8.46397 28.7998 8.45949V8.45949ZM13.2 1.2099C15.9553 1.22099 18.4162 2.94796 19.38 5.54714C19.4381 5.70478 19.559 5.83104 19.7137 5.89546C19.8682 5.95942 20.0426 5.95588 20.1942 5.88531C20.8223 5.59104 21.5069 5.43882 22.2 5.43882C24.483 5.4426 26.4485 7.06219 26.9046 9.31424C26.97 9.64156 27.2864 9.85324 27.6113 9.7874C29.3752 9.42846 31.2063 9.8858 32.5995 11.0332C33.9921 12.1808 34.7998 13.8969 34.7998 15.7091C34.8014 16.2828 34.7206 16.8539 34.56 17.4044C34.5342 17.3693 34.5038 17.339 34.4773 17.3053C34.3739 17.1722 34.2666 17.0441 34.155 16.919C34.0854 16.8406 34.017 16.7609 33.9443 16.6861C33.8447 16.5834 33.739 16.4878 33.6335 16.3911C33.4538 16.2261 33.2653 16.0706 33.0696 15.9252C32.9855 15.8651 32.9046 15.7954 32.8177 15.7362C32.6974 15.6572 32.5777 15.5878 32.4577 15.5153C32.3592 15.4547 32.2624 15.3943 32.1612 15.3431C32.0412 15.2824 31.9212 15.2222 31.8009 15.1684C31.6812 15.1146 31.5701 15.0634 31.4517 15.0162C31.3338 14.969 31.2216 14.9272 31.1041 14.8876C30.9684 14.8416 30.8311 14.801 30.6919 14.763C30.5843 14.7335 30.4777 14.7026 30.3684 14.679C30.2034 14.6415 30.0359 14.6143 29.8669 14.5891C29.7776 14.5756 29.6866 14.5577 29.5985 14.548C29.3334 14.5173 29.0667 14.5013 28.7998 14.5008C28.5124 14.501 28.2253 14.5185 27.9403 14.5527C27.1659 12.0128 24.8386 10.2775 22.2 10.2719C21.5433 10.2712 20.8912 10.3809 20.2704 10.5964C18.87 7.50939 15.6459 5.69062 12.3 6.09983C12.2065 6.11068 12.116 6.12815 12.0234 6.14207C11.8207 6.17369 11.6203 6.21051 11.4234 6.25676C11.3215 6.28036 11.2211 6.30703 11.1234 6.33464C10.9338 6.38797 10.7472 6.44886 10.5635 6.51611C10.473 6.54844 10.3835 6.57959 10.2918 6.6157C10.0727 6.70514 9.85918 6.80544 9.65035 6.91352C9.60535 6.93641 9.55801 6.956 9.51348 6.98007C9.2641 7.116 9.02223 7.26562 8.78855 7.42821C8.7234 7.47352 8.66269 7.52426 8.59918 7.57146C8.43301 7.69228 8.27105 7.82161 8.11566 7.95612C8.04019 8.02196 7.96801 8.0904 7.89488 8.1586C7.75566 8.28934 7.62136 8.42432 7.49293 8.56474C7.42543 8.63766 7.3584 8.70963 7.29418 8.78444C7.15636 8.94657 7.02582 9.11483 6.90113 9.28781C6.86761 9.3343 6.82753 9.37654 6.79449 9.42445C6.66675 8.91117 6.60136 8.3842 6.59996 7.85535C6.60441 4.1869 9.55684 1.21438 13.2 1.2099V1.2099ZM1.19994 16.3132C1.18752 13.5472 3.25214 11.218 5.98331 10.9171C5.93527 11.0379 5.898 11.159 5.85558 11.2796C5.81831 11.3848 5.77613 11.4882 5.74378 11.5955C5.69995 11.7383 5.66761 11.8849 5.63222 12.03C5.60714 12.1331 5.5762 12.2334 5.55558 12.338C5.52183 12.5055 5.50073 12.6768 5.47823 12.8479C5.46675 12.9343 5.44847 13.0188 5.4398 13.1071C5.41378 13.3674 5.39995 13.6314 5.39995 13.8983C5.40042 14.5353 5.47894 15.1696 5.63409 15.7869C4.01878 16.0206 2.54807 16.8517 1.50955 18.119C1.30541 17.5392 1.20041 16.9284 1.19994 16.3132ZM28.7998 27.7917H6.59996C4.68253 27.7901 2.90948 26.7656 1.94057 25.0996C0.971663 23.4335 0.952444 21.3754 1.88924 19.6912C1.90354 19.6746 1.9169 19.6572 1.92909 19.6388C2.61088 18.4477 3.71737 17.5621 5.02378 17.1621C5.06597 17.1496 5.10839 17.138 5.15152 17.126C5.31183 17.0811 5.47495 17.0452 5.64066 17.0157C5.69456 17.0061 5.748 16.9945 5.80284 16.9862C6.01308 16.9539 6.22519 16.9339 6.438 16.9258C6.62972 16.9199 6.80738 16.8222 6.91543 16.6627C7.02347 16.5032 7.04972 16.3014 6.98527 16.1195C5.77613 12.6823 7.54613 8.90668 10.9502 7.66231C14.3538 6.41818 18.1176 8.17063 19.38 11.5885C19.4559 11.8167 19.6678 11.9712 19.9069 11.9731C20.0051 11.9821 20.1037 11.9663 20.1942 11.9266C20.8223 11.6324 21.5069 11.4801 22.2 11.4801C24.483 11.4839 26.4485 13.1035 26.9046 15.3556C26.97 15.6829 27.2864 15.8946 27.6113 15.8287C28.2485 15.6966 28.9034 15.6737 29.5481 15.761C29.6208 15.7702 29.6923 15.7827 29.764 15.7943C29.9466 15.8245 30.1263 15.8625 30.3042 15.9085C30.372 15.9267 30.4416 15.9418 30.5088 15.9616C30.731 16.0277 30.9497 16.1067 31.1627 16.1985C31.23 16.2273 31.2931 16.2625 31.3584 16.2934C31.5089 16.3651 31.6584 16.4428 31.8005 16.5265C31.8811 16.573 31.9608 16.6214 32.0407 16.6721C32.1893 16.7687 32.3334 16.8727 32.4736 16.982C32.5228 17.0205 32.5744 17.0556 32.6231 17.0955C32.7999 17.2447 32.9679 17.4037 33.1263 17.5722C33.1732 17.6218 33.2185 17.673 33.2632 17.7244C33.4074 17.8851 33.5428 18.0539 33.6685 18.2294C33.6858 18.253 33.7045 18.2759 33.7212 18.3002C33.8738 18.5214 34.012 18.7524 34.1346 18.9919C35.0951 20.8635 35.0161 23.1045 33.926 24.9027C32.8357 26.7014 30.8925 27.7964 28.7998 27.7917V27.7917Z" fill="white"/>
</svg>
