<svg width="34" height="34" viewBox="0 0 34 34" fill="none" xmlns="http://www.w3.org/2000/svg">
<path d="M21.3354 0.180376C21.0705 -0.0601252 20.667 -0.0601252 20.4021 0.180376C20.0993 0.453352 13.1708 6.7858 9.95332 14.1252C9.60653 14.0034 9.2073 13.9122 8.69115 13.9122C7.47319 13.9122 6.81971 14.3667 6.29462 14.7321C5.83612 15.0514 5.47406 15.3034 4.69217 15.3034C3.91166 15.3034 3.5496 15.0513 3.09175 14.7328C2.56732 14.3673 1.91383 13.9122 0.69659 13.9122C0.312102 13.9122 0.000976562 14.2233 0.000976562 14.6078C0.000976562 14.9923 0.282999 14.691 0.667487 14.691C1.44801 14.691 2.21296 14.9849 2.67081 15.3034C3.19524 15.6689 3.45689 16.0266 4.67413 16.0266C5.89209 16.0266 6.15237 15.7243 6.67745 15.3588C7.13596 15.0402 7.91004 14.7912 8.69128 14.7912C9.47382 14.7912 10.2249 15.0396 10.6841 15.3588C11.2092 15.7243 11.4749 16.0266 12.6936 16.0266C13.9115 16.0266 14.5657 15.6688 15.0915 15.3034C15.55 14.9841 15.9127 14.7912 16.6952 14.7912C17.0797 14.7912 17.3908 14.9923 17.3908 14.6078C17.3908 14.2233 17.0797 13.9122 16.6952 13.9122C15.4766 13.9122 14.8224 14.3667 14.2967 14.7321C13.8382 15.0514 13.4754 15.3034 12.6936 15.3034C11.9627 15.3034 11.1027 14.897 10.6841 14.6078C13.3005 8.56523 19.0739 2.23442 20.7007 0.667774C23.3718 2.6711 32.7206 12.8593 32.7206 20.8681C32.7206 27.2527 27.0055 32.7209 20.8688 32.7209C18.0988 32.7209 15.4779 30.9658 13.4491 29.144C14.2017 29.0046 14.287 28.3273 14.6907 28.0465C15.1492 27.7272 15.9115 27.3787 16.6941 27.3787C17.0786 27.3787 17.3909 27.5129 17.3909 27.1284C17.3909 26.7439 17.0798 26.4328 16.6953 26.4328C15.4767 26.4328 14.8225 26.8872 14.2967 27.2527C13.8382 27.572 13.4755 27.8239 12.6936 27.8239C11.9111 27.8239 11.5483 27.5719 11.0898 27.2527C10.564 26.8872 9.90989 26.4328 8.69128 26.4328C7.47332 26.4328 6.81984 26.8872 6.29475 27.2527C5.83625 27.572 5.47419 27.8239 4.6923 27.8239C3.91179 27.8239 3.54973 27.5719 3.09188 27.2533C2.56745 26.8879 1.91396 26.4328 0.69672 26.4328C0.312232 26.4328 0.00110699 26.7439 0.00110699 27.1284C0.00110699 27.5129 0.496406 27.1284 0.880894 27.1284C1.66141 27.1284 2.21296 27.5054 2.67081 27.8239C3.19524 28.1894 3.47506 28.7143 4.6923 28.7143C5.91026 28.7143 6.15237 28.412 6.67745 28.0465C7.13596 27.728 7.91004 27.2533 8.69128 27.2533C9.47382 27.2533 10.2249 27.7273 10.6841 28.0465C10.9674 28.2437 10.9249 28.5506 11.3519 28.7143C14.2967 31.1327 17.1831 33.3887 20.8688 33.3887C27.7725 33.3887 33.3895 27.7717 33.3895 20.8681C33.3894 11.193 21.8273 0.625315 21.3354 0.180376Z" fill="white"/>
<path d="M0.695613 23.0798C1.47613 23.0798 2.2131 23.3318 2.67095 23.6504C3.19539 24.0159 3.47396 24.346 4.6912 24.346C5.07569 24.346 5.38681 24.7305 5.38681 24.346C5.38681 23.9615 5.07569 23.6504 4.6912 23.6504C3.91068 23.6504 3.54862 23.3984 3.09077 23.0798C2.56634 22.7144 1.91285 22.2592 0.695613 22.2592C0.311125 22.2592 0 22.5704 0 22.9549C0 23.3393 0.311125 23.0798 0.695613 23.0798Z" fill="white"/>
<path d="M8.68975 22.2593C8.30527 22.2593 7.99414 22.5704 7.99414 22.9549C7.99414 23.3394 8.30527 23.0792 8.68975 23.0792C9.47229 23.0792 9.84107 23.3313 10.2996 23.6505C10.8254 24.016 11.4736 24.2218 12.6922 24.2218C13.9101 24.2218 14.5239 24.0159 15.0497 23.6505C15.5082 23.3312 15.9113 22.9549 16.6938 22.9549C17.4893 22.9549 18.1856 23.323 18.6971 23.6505C19.2874 24.0275 19.6651 24.3461 20.8674 24.3461C21.2519 24.3461 21.563 24.7306 21.563 24.3461C21.563 23.9617 21.2519 23.6505 20.8674 23.6505C20.0719 23.6505 19.6671 23.3917 19.1556 23.0643C18.5653 22.6873 17.8961 22.2593 16.6938 22.2593C15.4752 22.2593 14.821 22.7138 14.2953 23.0792C13.8368 23.3985 13.474 23.6505 12.6922 23.6505C11.9096 23.6505 11.5469 23.3984 11.0877 23.0792C10.5626 22.7137 9.90843 22.2593 8.68975 22.2593Z" fill="white"/>
<path d="M8.69018 18.0858C7.47222 18.0858 6.81873 18.5402 6.29365 18.9057C5.83514 19.2249 5.47309 19.4769 4.6912 19.4769C3.91068 19.4769 3.54862 19.2249 3.09077 18.9063C2.56634 18.5409 1.91285 18.0858 0.695613 18.0858C0.311125 18.0858 0 18.3969 0 18.7814C0 19.1659 0.311125 18.9057 0.695613 18.9057C1.47613 18.9057 1.97326 19.1584 2.43111 19.477C2.95554 19.8424 3.45704 20.0332 4.67428 20.0332C5.89224 20.0332 6.82029 19.8424 7.34537 19.4769C7.80388 19.1584 7.90894 18.9063 8.69018 18.9063C9.07466 18.9063 9.38579 19.1659 9.38579 18.7814C9.38579 18.3968 9.07466 18.0858 8.69018 18.0858Z" fill="white"/>
<path d="M14.691 19.4769C15.1495 19.1576 15.9118 18.9056 16.6943 18.9056C17.4749 18.9056 18.2397 19.1584 18.6976 19.4769C19.222 19.8424 19.4727 20.1725 20.6899 20.1725C21.9079 20.1725 22.1792 19.8423 22.7042 19.4769C23.1627 19.1583 23.9077 18.9063 24.6889 18.9063C25.0734 18.9063 25.3845 19.1658 25.3845 18.7813C25.3845 18.3968 25.0734 18.0857 24.6889 18.0857C23.4709 18.0857 22.8174 18.5402 22.2924 18.9056C21.8339 19.2249 21.4718 19.4769 20.6899 19.4769C19.9094 19.4769 19.5473 19.2248 19.0895 18.9063C18.5651 18.5408 17.9116 18.0857 16.6943 18.0857C15.4757 18.0857 14.8215 18.5402 14.2958 18.9056C13.8373 19.2249 13.4745 19.4769 12.6927 19.4769C12.3082 19.4769 11.9971 19.788 11.9971 20.1725C11.9971 20.557 12.3082 20.1725 12.6927 20.1725C13.9106 20.1725 14.1651 19.8423 14.691 19.4769Z" fill="white"/>
</svg>
