<svg width="38" height="26" viewBox="0 0 38 26" fill="none" xmlns="http://www.w3.org/2000/svg">
<path d="M37.3859 22.0769H36.4241C36.3374 16.2873 33.7013 10.6581 28.7886 7.44621C28.5317 7.27822 28.1871 7.35032 28.0192 7.60724C27.8513 7.86416 28.5788 8.24987 28.8357 8.41787C33.4333 11.4238 35.5787 16.6635 35.6652 22.0769H29.5945C29.5295 19.3523 28.8728 16.4995 26.9557 14.5254C26.742 14.3052 26.3902 14.2999 26.1699 14.5138C25.9497 14.7276 26.3454 15.0272 26.5592 15.2474C28.2737 17.0129 28.7708 19.643 28.8357 22.0769H22.0062L26.9017 10.1638C27.2216 9.32292 26.8454 8.39594 26.0267 8.0077C25.2143 7.62243 24.2515 7.90818 23.7874 8.67272L16.7892 20.2013C16.7815 20.214 16.7742 20.227 16.7676 20.2401C16.3545 20.6606 16.0648 21.4777 15.9526 22.0769H9.11765C8.64423 18.4387 10.4581 15.5457 12.9002 13.7297C13.1464 13.5465 13.2814 13.7164 13.0982 13.4701C12.9149 13.2238 12.5669 13.1726 12.3205 13.3557C10.9837 14.3499 9.87604 15.6507 9.11765 17.1178C8.36156 18.58 8.38564 20.4321 8.34718 22.0769H2.2765C2.36276 16.7015 4.55864 11.4285 9.10601 8.41787C9.3619 8.24832 10.0067 7.91537 9.83728 7.65941C9.66773 7.40345 9.32292 7.33365 9.06696 7.50283C4.20768 10.72 1.60385 16.3275 1.51767 22.0769H0.555787C0.24877 22.0769 0 22.0466 0 22.3536C0 22.6606 0.24877 22.9094 0.555787 22.9094H15.9526C16.2189 24.3158 17.4711 25.3835 18.9709 25.3835C20.4707 25.3835 21.7228 24.3158 21.9891 22.9094H37.3859C37.693 22.9094 37.9417 22.6606 37.9417 22.3536C37.9417 22.0467 37.6931 22.0769 37.3859 22.0769ZM18.9709 24.3534C17.4532 24.3534 16.6006 23.41 16.6006 22.3505C16.6006 21.2911 17.8906 20.2013 18.9708 20.2013C20.051 20.2013 21.3282 21.2911 21.3282 22.3505C21.3282 23.41 20.4885 24.3534 18.9709 24.3534ZM22.0062 21.3181C21.4784 20.3975 20.1161 19.3177 18.9708 19.3177C18.85 19.3177 17.8269 19.3042 17.7096 19.3177L24.3886 9.0119C24.5533 8.74075 25.5091 8.53452 25.8004 8.67272C26.0902 8.81026 26.2816 9.74545 26.1699 10.0394L22.0062 21.3181Z" fill="white"/>
<path d="M15.9359 1.43873C16.9738 1.28237 17.9125 1.43873 18.9712 1.43873C22.0756 1.43873 25.7444 2.14055 28.5255 3.43887L26.7254 6.90019C26.5864 7.17386 26.2005 7.40388 26.4742 7.54275C26.5548 7.58366 26.6407 7.60307 26.7254 7.60307C26.928 7.60307 27.1234 7.49177 27.2213 7.29872L28.9357 3.92132C29.0441 3.70782 29.0614 3.46535 28.9846 3.23859C28.9072 3.01012 28.7441 2.82649 28.5255 2.72156C25.5346 1.28607 22.32 0.558289 18.9712 0.558289C17.8572 0.558289 16.7384 0.641731 15.6459 0.806392C15.3424 0.852115 15.1334 1.1352 15.1791 1.43873C15.2249 1.74234 15.6335 1.48504 15.9359 1.43873Z" fill="white"/>
<path d="M14.2473 13.4668C14.4044 13.7763 14.5247 14.3595 14.8504 14.3595C14.9777 14.3595 15.1073 14.3322 15.2308 14.2748C16.4045 13.7297 17.6628 12.9709 18.9708 12.9709C19.1356 12.9709 19.7903 12.475 19.7297 12.9709C20.0341 12.986 20.0336 13.2487 20.0503 12.9421C20.067 12.6356 19.8321 12.3736 19.5256 12.3569C19.3423 12.3469 19.1557 12.3418 18.9708 12.3418C17.5703 12.3418 16.1171 12.9101 14.8504 13.4668L9.86481 3.10606C11.0114 2.57117 12.1712 2.3693 13.3963 2.05147C13.6934 1.9744 14.151 1.96149 14.0739 1.66433C13.9967 1.36717 13.6937 1.18865 13.3963 1.26594C12.0284 1.62083 10.6895 2.11052 9.41655 2.72159C9.19794 2.82652 9.10597 2.58903 9.10597 3.10606C9.02913 3.33282 9.30814 3.6514 9.41655 3.86489L14.2473 13.4668Z" fill="white"/>
</svg>
