<svg width="45" height="30" viewBox="0 0 45 30" fill="none" xmlns="http://www.w3.org/2000/svg">
<path d="M23.1706 8.04276C25.0421 7.54087 27.3186 8.2997 28.286 9.92384C28.3975 9.99973 28.5237 10.0363 28.649 10.0363C28.8548 10.0363 29.0573 9.93761 29.1822 9.75494C29.383 9.46079 29.3071 9.05986 29.0133 8.85906C27.3199 7.70294 25.3465 6.9773 23.3066 6.76038C22.953 6.72344 22.635 6.97931 22.5974 7.33357C22.5598 7.68749 22.8163 8.00515 23.1706 8.04276Z" fill="white"/>
<path d="M21.7824 3.84309C22.0338 3.84309 22.2378 3.55465 22.2378 3.19838V0.644713C22.2378 0.288442 22.0338 0 21.7824 0C21.5308 0 21.3271 0.288442 21.3271 0.644713V3.19838C21.3271 3.55465 21.5308 3.84309 21.7824 3.84309Z" fill="white"/>
<path d="M13.4181 5.66336C13.5373 5.87021 13.7542 5.98572 13.9769 5.98572C14.0863 5.98572 14.1971 5.95785 14.2989 5.89942C14.6071 5.72112 14.7126 5.3269 14.5346 5.01865L13.2579 2.80682C13.0796 2.49856 12.6854 2.39313 12.3772 2.57076C12.0689 2.74906 11.9631 3.14328 12.1411 3.45153L13.4181 5.66336Z" fill="white"/>
<path d="M5.58817 10.4755L7.79967 11.7525C7.90141 11.8109 8.01222 11.8388 8.12135 11.8388C8.34432 11.8388 8.5609 11.7233 8.68044 11.5165C8.85841 11.2082 8.75263 10.814 8.44438 10.6357L6.23288 9.35902C5.92429 9.18105 5.53008 9.28649 5.35211 9.59474C5.17414 9.90333 5.27958 10.2975 5.58817 10.4755Z" fill="white"/>
<path d="M37.3184 19.0005C37.3184 19.2521 37.6071 19.4558 37.9631 19.4558H40.5171C40.873 19.4558 41.1618 19.2521 41.1618 19.0005C41.1618 18.7492 40.873 18.5452 40.5171 18.5452H37.9631C37.6071 18.5452 37.3184 18.7492 37.3184 19.0005Z" fill="white"/>
<path d="M3.42596 19.4558H5.97997C6.3359 19.4558 6.62468 19.2521 6.62468 19.0005C6.62468 18.7492 6.3359 18.5452 5.97997 18.5452H3.42596C3.07003 18.5452 2.78125 18.7492 2.78125 19.0005C2.78125 19.2521 3.07003 19.4558 3.42596 19.4558Z" fill="white"/>
<path d="M35.8213 11.8388C35.9304 11.8388 36.0416 11.8109 36.143 11.7525L38.3548 10.4755C38.663 10.2975 38.7688 9.90333 38.5905 9.59474C38.4125 9.28649 38.0183 9.18105 37.7101 9.35902L35.4983 10.6357C35.19 10.814 35.0842 11.2082 35.2622 11.5165C35.3817 11.7233 35.5983 11.8388 35.8213 11.8388Z" fill="white"/>
<path d="M29.6445 5.89945C29.7462 5.95788 29.857 5.98575 29.9665 5.98575C30.1891 5.98575 30.4061 5.87024 30.5253 5.66339L31.8023 3.45156C31.9802 3.1433 31.8745 2.74909 31.5662 2.57079C31.2579 2.39282 30.8637 2.49859 30.6854 2.80684L29.4088 5.01868C29.2308 5.32693 29.3362 5.72115 29.6445 5.89945Z" fill="white"/>
<path d="M16.4371 24.9097H5.98065C5.62438 24.9097 5.33594 25.1137 5.33594 25.365C5.33594 25.6166 5.62438 25.8203 5.98065 25.8203H16.4371C16.793 25.8203 17.0818 25.6166 17.0818 25.365C17.0818 25.1137 16.793 24.9097 16.4371 24.9097Z" fill="white"/>
<path d="M32.6599 27.0883H25.6164C25.2605 27.0883 24.9717 27.2923 24.9717 27.5436C24.9717 27.7952 25.2605 27.9989 25.6164 27.9989H32.6599C33.0158 27.9989 33.3046 27.7952 33.3046 27.5436C33.3046 27.2923 33.0161 27.0883 32.6599 27.0883Z" fill="white"/>
<path d="M36.4129 29.0322H34.2092C33.8532 29.0322 33.5645 29.2362 33.5645 29.4875C33.5645 29.7391 33.8532 29.9428 34.2092 29.9428H36.4129C36.7689 29.9428 37.0577 29.7391 37.0577 29.4875C37.0577 29.2362 36.7689 29.0322 36.4129 29.0322Z" fill="white"/>
<path d="M43.3683 22.1116H34.1288C34.3571 21.1587 34.474 20.1795 34.474 19.1899C34.474 16.0863 33.3282 13.1098 31.2484 10.809C31.0096 10.5451 30.602 10.5246 30.3377 10.7633C30.0738 11.0021 30.1149 11.0708 30.354 11.3351C32.2193 13.3982 33.3893 16.4066 33.3893 19.1899C33.3893 20.1825 33.2475 21.1634 32.9923 22.1116H16.8713C16.5153 22.1116 16.2266 22.4004 16.2266 22.7564C16.2266 23.1126 16.5153 23.4011 16.8713 23.4011H43.3683C43.7242 23.4011 44.013 23.1126 44.013 22.7564C44.013 22.4004 43.7242 22.1116 43.3683 22.1116Z" fill="white"/>
<path d="M14.6252 22.7563C14.6252 22.4 14.3365 22.1116 13.9805 22.1116H10.7597C10.5048 21.1637 10.6237 19.9153 10.6237 18.9234C10.44 14.3704 14.9279 8.26285 20.4885 7.5409C20.8414 7.49523 21.1157 7.70295 21.0697 7.3497C21.024 6.99679 20.701 6.74763 20.3474 6.7933C14.1464 7.59852 9.47023 12.9278 9.47023 19.1899C9.47023 20.1785 9.58675 21.1586 9.81474 22.1116H0.644713C0.288778 22.1116 0 22.4 0 22.7563C0 23.1123 0.288778 23.401 0.644713 23.401H13.9805C14.3365 23.401 14.6252 23.1123 14.6252 22.7563Z" fill="white"/>
</svg>
