<svg width="43" height="29" viewBox="0 0 43 29" fill="none" xmlns="http://www.w3.org/2000/svg">
<path d="M16.8545 14.9555C16.5308 14.6542 16.0046 14.6542 15.6809 14.9555C15.3564 15.2561 15.3564 15.7447 15.6809 16.0453C16.0046 16.3466 16.5308 16.3466 16.8545 16.0453C17.179 15.7447 17.179 15.2561 16.8545 14.9555Z" fill="white"/>
<path d="M21.2477 16.2711C19.8748 16.2711 18.7578 17.3083 18.7578 18.5832C18.7578 19.858 19.8748 20.8952 21.2477 20.8952C22.6207 20.8952 23.7377 19.858 23.7377 18.5832C23.7377 17.3083 22.6207 16.2711 21.2477 16.2711ZM21.2477 20.0415C20.7901 20.0415 19.4048 19.0081 19.4048 18.5832C19.4048 18.1582 20.7901 17.0062 21.2477 17.0062C21.7054 17.0062 23.138 18.1582 23.138 18.5832C23.138 19.0081 21.7054 20.0415 21.2477 20.0415Z" fill="white"/>
<path d="M21.2472 12.4176C20.3195 12.4176 19.4224 12.5917 18.581 12.9352C18.1614 13.1065 17.9707 13.5612 18.1552 13.9508C18.2119 13.9709 18.5511 14.142 18.9707 13.9709C19.6003 13.7139 20.5509 13.212 21.2472 13.212C23.9931 13.212 27.3179 15.9741 27.3179 18.5239C27.3179 21.0736 23.9931 23.8357 21.2472 23.8357C18.5013 23.8357 14.4177 20.8004 15.9354 18.5239C15.9347 18.5502 15.9354 18.4975 15.9354 18.5239C15.9354 18.5239 15.9157 17.7262 15.4575 17.7164C14.9985 17.7057 14.6191 18.0434 14.6085 18.4689C14.6075 18.5073 14.6074 18.5448 14.6074 18.5832C14.6074 21.9828 17.586 24.7487 21.2472 24.7487C24.9084 24.7487 27.887 21.9828 27.887 18.5832C27.887 15.1835 24.9084 12.4176 21.2472 12.4176Z" fill="white"/>
<path d="M20.7974 0.857239C20.5878 0.857239 20.418 1.20228 20.418 1.62793V6.25208C20.418 6.67773 20.5878 7.02277 20.7974 7.02277C21.0069 7.02277 21.1768 6.67773 21.1768 6.25208V1.62793C21.1768 1.20228 21.0069 0.857239 20.7974 0.857239Z" fill="white"/>
<path d="M7.9149 4.29843C7.73429 4.4047 7.76287 4.78822 7.97873 5.15508L10.3238 9.1405C10.5396 9.50735 10.861 9.71859 11.0416 9.61232C11.2222 9.50605 11.1936 9.12253 10.9778 8.75567L8.63275 4.77025C8.41689 4.4034 8.09551 4.19216 7.9149 4.29843Z" fill="white"/>
<path d="M33.8078 4.29843C33.9884 4.4047 33.9598 4.78822 33.7439 5.15508L31.3989 9.1405C31.183 9.50735 30.8617 9.71859 30.681 9.61232C30.5004 9.50605 30.529 9.12253 30.7449 8.75567L33.0899 4.77025C33.3058 4.4034 33.6272 4.19216 33.8078 4.29843Z" fill="white"/>
<path d="M42.2868 18.715C37.0144 13.1722 29.1857 8.56418 21.2474 8.56418C13.3079 8.56418 5.47932 13.1734 0.207901 18.715C-0.0955375 19.034 -0.0630025 19.521 0.280524 19.8028C0.624134 20.0845 1.14868 20.0543 1.45203 19.7353C1.6289 19.5494 1.81009 19.3641 1.99359 19.18C6.09492 24.9343 13.5297 28.6021 21.2474 28.6021C28.965 28.6021 36.3998 24.9343 40.5011 19.18C40.6846 19.3642 40.8658 19.5495 41.0427 19.7353C41.3451 20.0533 41.8696 20.0854 42.2142 19.8028C42.5577 19.521 42.5903 19.0339 42.2868 18.715ZM21.2474 27.6299C13.9506 27.6299 6.02948 23.2602 2.2765 17.765C5.23354 15.0745 12.9693 9.41787 21.2474 9.41787C29.5255 9.41787 37.2612 15.0746 40.2182 17.765C36.4652 23.2602 28.5441 27.6299 21.2474 27.6299Z" fill="white"/>
</svg>
