<svg width="41" height="32" viewBox="0 0 41 32" fill="none" xmlns="http://www.w3.org/2000/svg">
<path d="M35.6653 6.07068C32.7366 6.07068 30.3534 8.45389 30.3534 11.3825C30.3534 11.802 30.6928 12.1414 31.1123 12.1414C31.5317 12.1414 31.1122 11.802 31.1122 11.3825C31.1122 9.2906 33.5674 6.50267 35.6652 6.82951C37.7579 6.82951 40.2183 9.2906 40.2183 11.3825C40.2183 13.4744 37.7579 15.9355 35.6652 15.9355L0.878952 15.1767C0.459506 15.1767 0.120117 15.5161 0.120117 15.9355C0.120117 16.355 0.459506 16.6944 0.878952 16.6944H35.6653C38.5939 16.6944 40.9771 14.3111 40.9771 11.3825C40.9771 8.45389 38.5939 6.07068 35.6653 6.07068Z" fill="white"/>
<path d="M20.4885 0C17.5599 0 15.1767 2.38321 15.1767 5.31184C15.1767 5.73129 15.5161 6.07068 15.9355 6.07068C16.355 6.07068 15.9355 5.73129 15.9355 5.31184C15.1767 3.03534 18.655 0.326234 20.4885 0.758834C22.765 0.513053 25.2873 3.03534 25.0415 5.31184C25.0415 7.40376 22.5812 9.86485 20.4885 9.86485L0.758834 9.10601C0.339389 9.10601 0 9.4454 0 9.86485C0 10.2843 0.339389 10.6237 0.758834 10.6237H20.4885C23.4172 10.6237 25.8004 8.24047 25.8004 5.31184C25.8004 2.38321 23.4172 0 20.4885 0Z" fill="white"/>
<path d="M20.4885 21.2474H0.758834C0.339389 21.2474 0 21.5868 0 22.0062C0 22.4257 0.339389 22.765 0.758834 22.765L20.4885 22.0062C22.5812 22.0062 25.0415 24.4673 25.0415 26.5592C25.0415 28.6511 22.5812 31.1122 20.4885 31.1122C18.3959 31.1122 15.9355 28.6511 15.9355 26.5592C15.9355 26.1398 16.355 25.8004 15.9355 25.8004C15.5161 25.8004 15.1767 26.1398 15.1767 26.5592C15.1767 29.4878 17.5599 31.8711 20.4885 31.8711C23.4172 31.8711 25.8004 29.4878 25.8004 26.5592C25.8004 23.6306 23.4172 21.2474 20.4885 21.2474Z" fill="white"/>
</svg>
