<svg width="61" height="61" viewBox="0 0 61 61" fill="none" xmlns="http://www.w3.org/2000/svg">
<path d="M30.4999 0C30.363 0 30.252 0.487762 30.252 1.0893V6.5357C30.252 7.13724 30.363 7.625 30.4999 7.625C30.6368 7.625 30.7479 7.13724 30.7479 6.5357V1.0893C30.7479 0.487762 30.6368 0 30.4999 0Z" fill="#EFF9F0"/>
<path d="M52.1851 9.10217C52.0883 9.00535 51.6649 9.27173 51.2395 9.69709L47.3883 13.5483C46.963 13.9736 46.6966 14.397 46.7934 14.4939C46.8902 14.5907 47.3137 14.3243 47.739 13.899L51.5902 10.0478C52.0155 9.62241 52.2819 9.199 52.1851 9.10217Z" fill="#EFF9F0"/>
<path d="M46.2973 46.2973C46.3941 46.2005 46.8176 46.4668 47.2429 46.8922L51.0941 50.7434C51.5195 51.1687 51.7858 51.5922 51.689 51.689C51.5922 51.7858 51.1688 51.5194 50.7434 51.0941L46.8922 47.2429C46.4669 46.8175 46.2005 46.3941 46.2973 46.2973Z" fill="#EFF9F0"/>
<path d="M59.9107 30.252H54.4643C53.8628 30.252 53.375 30.363 53.375 30.5C53.375 30.6369 53.8628 30.7479 54.4643 30.7479H59.9107C60.5122 30.7479 61 30.6369 61 30.5C61 30.363 60.5122 30.252 59.9107 30.252Z" fill="#EFF9F0"/>
<path d="M9.102 9.10217C9.19883 9.00535 9.62224 9.27173 10.0476 9.69709L13.8988 13.5483C14.3241 13.9736 14.5905 14.397 14.4937 14.4939C14.3969 14.5907 13.9735 14.3243 13.5481 13.8989L9.69692 10.0478C9.27156 9.62241 9.00518 9.199 9.102 9.10217Z" fill="#EFF9F0"/>
<path d="M30.4999 53.375C30.363 53.375 30.252 53.8628 30.252 54.4643V59.9107C30.252 60.5122 30.363 61 30.4999 61C30.6368 61 30.7479 60.5122 30.7479 59.9107V54.4643C30.7479 53.8628 30.6368 53.375 30.4999 53.375Z" fill="#EFF9F0"/>
<path d="M6.5357 30.252H1.0893C0.487762 30.252 0 30.363 0 30.5C0 30.6369 0.487762 30.7479 1.0893 30.7479H6.5357C7.13724 30.7479 7.625 30.6369 7.625 30.5C7.625 30.363 7.13724 30.252 6.5357 30.252Z" fill="#EFF9F0"/>
<path d="M14.4937 46.7932C14.3969 46.6964 13.9735 46.9628 13.5481 47.3881L9.69692 51.2393C9.27157 51.6647 9.00518 52.0881 9.10201 52.1849C9.19884 52.2817 9.62225 52.0154 10.0476 51.59L13.8988 47.7388C14.3241 47.3135 14.5905 46.8901 14.4937 46.7932Z" fill="#EFF9F0"/>
<path d="M30.4995 47.6364C40.3464 47.6364 48.329 39.6538 48.329 29.8068C48.329 19.9598 40.3464 11.9773 30.4995 11.9773C20.6525 11.9773 12.6699 19.9598 12.6699 29.8068C12.6699 39.6538 20.6525 47.6364 30.4995 47.6364Z" stroke="#EFF9F0"/>
</svg>
