<svg width="60" height="47" viewBox="0 0 60 47" fill="none" xmlns="http://www.w3.org/2000/svg">
<path d="M47.2336 23.81C46.7616 23.8103 45.4889 23.7537 45.0203 23.81C43.7484 19.6681 40.8529 16.8188 36.5203 16.81C35.4418 16.8088 34.0395 16.9589 33.0203 17.31C30.4972 11.8542 24.8899 9.01605 19.0203 10.31C13.15 11.6043 10.0161 15.7993 10.0203 21.81C10.0207 22.8488 10.2664 24.8035 10.5203 25.81C4.92777 26.6638 -0.392895 30.6296 0.022867 36.2718C0.437858 41.9145 5.12452 46.2883 10.7818 46.3133H47.2336C53.7629 46.3133 59.0556 41.0202 59.0556 34.4909C59.0556 27.9616 53.7629 23.81 47.2336 23.81ZM47.2336 45.31L10.5203 45.81C7.95174 45.81 5.40227 44.7885 3.52032 42.81C1.73887 40.9371 0.555551 38.1716 0.520325 35.81C0.44827 30.9534 5.66451 26.4336 10.5203 26.31C10.8355 26.3011 10.5203 26.31 11.0203 26.31C11.1467 26.31 11.1263 25.607 11.0203 25.31C9.06482 19.7139 11.9482 13.3333 17.5203 11.31C23.0921 9.28664 29.6787 12.3734 31.7691 17.9205C31.8647 18.1779 32.0627 18.3833 32.3163 18.4881C32.5702 18.5929 32.8557 18.5871 33.1046 18.4723C34.1361 17.9926 35.2593 17.7441 36.3964 17.7429C40.1448 17.7498 43.3727 20.3901 44.1214 24.0629C44.2285 24.597 44.7487 24.9422 45.2819 24.8344C45.9243 24.7057 46.5778 24.6402 47.2336 24.6394C52.6747 24.6394 58.0203 29.0505 58.0203 34.4909C58.0203 39.932 52.6747 45.31 47.2336 45.31Z" fill="#EFF9F0"/>
<path d="M50.7132 25C51.2325 21.8527 51.0474 18.6132 50.1515 15.5196C48.9105 11.2343 46.3673 7.44124 42.8741 4.66605C39.381 1.89086 35.1111 0.271049 30.6562 0.0311226C26.2014 -0.208804 21.7822 0.943042 18.0112 3.32701C14.2403 5.71097 11.3043 9.20898 9.61026 13.3362C7.91623 17.4634 7.54806 22.0153 8.55676 26.3611L9 26.3611C8.03039 22.1838 8.37162 17.4673 10 13.5C11.6284 9.53276 14.3752 6.29158 18 4.00001C21.6248 1.70843 26.3292 0.63251 30.6114 0.863138C34.8937 1.09377 38.9981 2.65081 42.3558 5.31844C45.7136 7.98608 48.1583 11.6322 49.3512 15.7514C50.2133 18.7284 50.3907 21.846 49.8894 24.8746C50.2811 23.7519 50.5 25 49.8894 24.8746L50.7132 25Z" fill="#EFF9F0"/>
</svg>
