<svg width="60" height="56" viewBox="0 0 60 56" fill="none" xmlns="http://www.w3.org/2000/svg">
<path d="M47.4521 24.3198C46.9876 24.3201 45.7351 24.2644 45.274 24.3198C44.0222 20.2437 41.1727 17.4396 36.9089 17.4309C35.8475 17.4297 34.4674 17.5775 33.4645 17.9229C30.9814 12.5538 25.4631 9.76067 19.6867 11.034C13.9095 12.3078 10.8254 16.4363 10.8295 22.3515C10.8299 23.3738 11.0717 25.2975 11.3216 26.288C5.81781 27.1283 0.581604 31.0311 0.990766 36.5838C1.39917 42.1369 6.01144 46.4413 11.5789 46.4659H47.4521C53.8777 46.4659 59.0865 41.2568 59.0865 34.8312C59.0865 28.4055 53.8777 24.3198 47.4521 24.3198ZM47.4521 45.4785L11.3216 45.9706C8.79378 45.9706 6.28479 44.9653 4.43271 43.0182C2.67954 41.175 1.51499 38.4535 1.48033 36.1293C1.40942 31.3498 6.54285 26.9018 11.3216 26.7801C11.6318 26.7714 11.3216 26.7801 11.8137 26.7801C11.938 26.7801 11.9179 26.0883 11.8137 25.7959C9.88919 20.2888 12.7268 14.0094 18.2105 12.0182C23.6938 10.027 30.1759 13.0648 32.2331 18.5238C32.3271 18.7771 32.522 18.9792 32.7716 19.0824C33.0215 19.1855 33.3025 19.1798 33.5474 19.0668C34.5625 18.5947 35.6679 18.3501 36.787 18.349C40.4759 18.3558 43.6525 20.9541 44.3893 24.5687C44.4947 25.0943 45.0066 25.4341 45.5314 25.3279C46.1636 25.2012 46.8067 25.1368 47.4521 25.136C52.8069 25.136 58.0676 29.4772 58.0676 34.8312C58.0676 40.1859 52.8069 45.4785 47.4521 45.4785Z" fill="#EFF9F0"/>
<path d="M50.8765 25.4909C51.3875 22.3935 51.2054 19.2055 50.3237 16.161C49.1025 11.9437 46.5995 8.21082 43.1619 5.47968C39.7242 2.74855 35.5221 1.15444 31.1379 0.918324C26.7537 0.682206 22.4047 1.81577 18.6936 4.16189C14.9825 6.50802 12.0931 9.9505 10.426 14.0122C8.75885 18.0739 8.39652 22.5536 9.38921 26.8304L9.82542 26.8304C8.8712 22.7193 9.20702 18.0777 10.8095 14.1734C12.4121 10.2691 15.1153 7.07941 18.6826 4.82421C22.2499 2.56901 26.8795 1.51017 31.0938 1.73713C35.3081 1.9641 39.3474 3.49643 42.6518 6.12172C45.9562 8.74701 48.3622 12.3352 49.5361 16.389C50.3845 19.3189 50.5591 22.387 50.0658 25.3674C50.4513 24.2626 50.6667 25.4909 50.0658 25.3674L50.8765 25.4909Z" fill="#EFF9F0"/>
<path d="M19.4202 50.2722C19.3218 50.1738 18.8915 50.4445 18.4591 50.8769L14.5448 54.7912C14.1125 55.2235 13.8417 55.6539 13.9401 55.7523C14.0386 55.8507 14.4689 55.5799 14.9012 55.1476L18.8156 51.2333C19.2479 50.801 19.5186 50.3706 19.4202 50.2722Z" fill="#EFF9F0"/>
<path d="M32.2139 50.2722C32.1154 50.1738 31.6851 50.4445 31.2528 50.8769L27.3384 54.7912C26.9061 55.2235 26.6354 55.6539 26.7338 55.7523C26.8322 55.8507 27.2625 55.5799 27.6949 55.1476L31.6092 51.2333C32.0415 50.801 32.3123 50.3706 32.2139 50.2722Z" fill="#EFF9F0"/>
<path d="M45.0075 50.2722C44.9091 50.1738 44.4787 50.4445 44.0464 50.8769L40.1321 54.7912C39.6998 55.2235 39.429 55.6539 39.5274 55.7523C39.6258 55.8507 40.0562 55.5799 40.4885 55.1476L44.4028 51.2333C44.8352 50.801 45.1059 50.3706 45.0075 50.2722Z" fill="#EFF9F0"/>
</svg>
