<svg width="63" height="63" viewBox="0 0 63 63" fill="none" xmlns="http://www.w3.org/2000/svg">
<path d="M49.2133 26.9999C48.7412 27.0003 47.4686 26.9436 47 26.9999C45.7281 22.8581 42.8326 20.0088 38.5 19.9999C37.4215 19.9987 36.0192 20.1489 35 20.4999C32.4769 15.0441 26.8696 12.206 21 13.4999C15.1296 14.7942 11.9958 18.9893 12 24.9999C12.0004 26.0387 12.2461 27.9934 12.5 28.9999C6.90745 29.8538 1.58678 33.8195 2.00254 39.4618C2.41753 45.1044 7.1042 49.4782 12.7615 49.5033H49.2133C55.7425 49.5033 61.0353 44.2101 61.0353 37.6808C61.0353 31.1516 55.7425 26.9999 49.2133 26.9999ZM49.2133 48.4999L12.5 48.9999C9.93142 48.9999 7.38195 47.9785 5.5 45.9999C3.71855 44.127 2.53523 41.3616 2.5 38.9999C2.42794 34.1433 7.64418 29.6236 12.5 29.4999C12.8152 29.491 12.5 29.4999 13 29.4999C13.1264 29.4999 13.106 28.797 13 28.4999C11.0445 22.9039 13.9279 16.5232 19.5 14.4999C25.0717 12.4766 31.6584 15.5634 33.7488 21.1105C33.8443 21.3679 34.0424 21.5732 34.2959 21.6781C34.5499 21.7829 34.8354 21.7771 35.0843 21.6623C36.1158 21.1825 37.239 20.934 38.3761 20.9328C42.1245 20.9398 45.3523 23.58 46.101 27.2529C46.2081 27.7869 46.7283 28.1322 47.2616 28.0243C47.9039 27.8956 48.5575 27.8301 49.2133 27.8293C54.6544 27.8293 60 32.2405 60 37.6808C60 43.122 54.6544 48.4999 49.2133 48.4999Z" fill="#EFF9F0"/>
</svg>
