<svg width="60" height="49" viewBox="0 0 60 49" fill="none" xmlns="http://www.w3.org/2000/svg">
<path d="M47.2336 13.81C46.7616 13.8103 45.4889 13.7537 45.0203 13.81C43.7484 9.66814 40.8529 6.81882 36.5203 6.80996C35.4418 6.8088 34.0395 6.95893 33.0203 7.30996C30.4972 1.85419 24.8899 -0.98395 19.0203 0.309959C13.15 1.60425 10.0161 5.79933 10.0203 11.81C10.0207 12.8488 10.2664 14.8035 10.5203 15.81C4.92777 16.6638 -0.392895 20.6296 0.022867 26.2718C0.437858 31.9145 5.12452 36.2883 10.7818 36.3133H47.2336C53.7629 36.3133 59.0556 31.0202 59.0556 24.4909C59.0556 17.9616 53.7629 13.81 47.2336 13.81ZM47.2336 35.31L10.5203 35.81C7.95174 35.81 5.40227 34.7885 3.52032 32.81C1.73887 30.9371 0.555551 28.1716 0.520325 25.81C0.44827 20.9534 5.66451 16.4336 10.5203 16.31C10.8355 16.3011 10.5203 16.31 11.0203 16.31C11.1467 16.31 11.1263 15.607 11.0203 15.31C9.06482 9.71394 11.9482 3.33328 17.5203 1.30996C23.0921 -0.713363 29.6787 2.37345 31.7691 7.92054C31.8647 8.17793 32.0627 8.38331 32.3163 8.48811C32.5702 8.59292 32.8557 8.58714 33.1046 8.47231C34.1361 7.99259 35.2593 7.74406 36.3964 7.7429C40.1448 7.74984 43.3727 10.3901 44.1214 14.0629C44.2285 14.597 44.7487 14.9422 45.2819 14.8344C45.9243 14.7057 46.5778 14.6402 47.2336 14.6394C52.6747 14.6394 58.0203 19.0505 58.0203 24.4909C58.0203 29.932 52.6747 35.31 47.2336 35.31Z" fill="#EFF9F0"/>
<g clip-path="url(#clip0)">
<path d="M29.6884 37.6932H27.5233L28.176 36.5631C28.2614 36.4162 28.2116 36.2281 28.0635 36.1427C27.9148 36.0573 27.7274 36.1083 27.6432 36.2558L26.8135 37.6932H25.1665L26.8436 34.787C26.929 34.6407 26.8793 34.4521 26.7312 34.3672C26.5837 34.2824 26.3962 34.3322 26.3108 34.4797L24.4548 37.6932H21.382L20.4553 36.0868L21.9917 33.4257H25.703C25.8714 33.4257 26.0103 33.2881 26.0103 33.1185C26.0103 32.9495 25.8714 32.8112 25.703 32.8112H22.3457L23.1692 31.386L24.8279 31.3866C24.9975 31.3866 25.1351 31.249 25.1351 31.0794C25.1351 30.9103 24.9975 30.7721 24.8279 30.7721L23.5232 30.7715L24.606 28.8958C24.6914 28.7489 24.641 28.5609 24.4935 28.4761C24.3467 28.39 24.1586 28.4404 24.0732 28.5885L22.9897 30.4642L22.3371 29.334C22.2522 29.1877 22.0642 29.1367 21.9173 29.2215C21.7704 29.3063 21.72 29.4944 21.8042 29.6413L22.6339 31.0787L21.8116 32.5039L20.1345 29.5977C20.0497 29.4502 19.8616 29.3998 19.7147 29.4846C19.5679 29.57 19.5175 29.7574 19.6017 29.9049L21.4576 33.1178L19.9212 35.7795H18.0659L16.5295 33.1185L18.3848 29.9049C18.4696 29.7581 18.4192 29.57 18.2724 29.4846C18.1249 29.3998 17.938 29.4502 17.8526 29.5977L16.1749 32.5039L15.352 31.0787L16.1822 29.6407C16.2671 29.4944 16.2167 29.3057 16.0698 29.2209C15.9229 29.1355 15.7348 29.1865 15.65 29.3334L14.9974 30.4642L13.917 28.5879C13.8316 28.4404 13.6435 28.3907 13.4972 28.4755C13.3504 28.5603 13.3 28.7477 13.3848 28.8952L14.4676 30.7708H13.1635C12.9939 30.7708 12.8562 30.9091 12.8562 31.0781C12.8562 31.2477 12.9939 31.3854 13.1635 31.3854H14.8228L15.6457 32.8106H12.2902C12.1206 32.8106 11.983 32.9482 11.983 33.1178C11.983 33.2875 12.1206 33.4251 12.2902 33.4251H16.0009L17.5373 36.0868L16.6087 37.6932H13.5366L11.6794 34.4797C11.5946 34.3328 11.4059 34.2824 11.2596 34.3672C11.1127 34.4521 11.0623 34.6401 11.1472 34.787L12.8268 37.6932H11.181L10.3513 36.2564C10.2659 36.1089 10.0778 36.0591 9.93156 36.1433C9.78468 36.2287 9.73429 36.4162 9.8191 36.5637L10.4718 37.6932H8.30728C8.13766 37.6932 8 37.8309 8 38.0005C8 38.1695 8.13766 38.3078 8.30728 38.3078H10.4724L9.81971 39.4386C9.7349 39.5855 9.7853 39.7735 9.93218 39.859C9.98073 39.8866 10.0336 39.8995 10.0858 39.8995C10.1921 39.8995 10.2954 39.8442 10.3525 39.7459L11.1822 38.3078H12.8292L11.1502 41.2141C11.0654 41.3603 11.1158 41.549 11.2627 41.6344C11.3112 41.6621 11.3641 41.675 11.4163 41.675C11.5227 41.675 11.6259 41.6203 11.6831 41.5213L13.5396 38.3078H16.6118L17.5392 39.913L16.0028 42.5747H12.2927C12.1231 42.5747 11.9854 42.713 11.9854 42.882C11.9854 43.051 12.1231 43.1892 12.2927 43.1892H15.6476L14.8247 44.6144H13.1648C12.9951 44.6144 12.8575 44.7521 12.8575 44.9217C12.8575 45.0907 12.9951 45.229 13.1648 45.229H14.4701L13.3872 47.104C13.3024 47.2503 13.3528 47.4389 13.4997 47.5244C13.5482 47.552 13.6011 47.5649 13.6533 47.5649C13.7597 47.5649 13.8629 47.5102 13.9201 47.4113L15.0029 45.5356L15.6556 46.6664C15.7127 46.7654 15.816 46.8201 15.9223 46.8201C15.9745 46.8201 16.0274 46.8072 16.0759 46.7795C16.2228 46.6941 16.2732 46.5066 16.1884 46.3591L15.3575 44.9211L16.1804 43.4959L17.8581 46.4022C17.9153 46.5011 18.0185 46.5558 18.1249 46.5558C18.1771 46.5558 18.23 46.5429 18.2785 46.5152C18.4254 46.4298 18.4758 46.243 18.391 46.0949L16.535 42.8814L18.0714 40.2215H19.9274L21.4638 42.882L19.6072 46.0955C19.5224 46.2424 19.5728 46.4304 19.7196 46.5159C19.7676 46.5435 19.8204 46.5564 19.8733 46.5564C19.9802 46.5564 20.0835 46.5017 20.14 46.4028L21.8178 43.4965L22.6413 44.9217L21.8116 46.3585C21.7268 46.5048 21.7772 46.6935 21.9247 46.7789C21.9739 46.8065 22.0267 46.8195 22.0783 46.8195C22.1853 46.8195 22.2885 46.7635 22.3457 46.6658L22.9983 45.5363L24.0818 47.4119C24.1389 47.5108 24.2422 47.5655 24.3491 47.5655C24.4007 47.5655 24.4536 47.5526 24.5028 47.525C24.6484 47.4395 24.6988 47.2527 24.6158 47.1046L23.5318 45.2277H24.8365C25.0061 45.2277 25.1438 45.0901 25.1438 44.9205C25.1438 44.7515 25.0061 44.6132 24.8365 44.6132H23.1765L22.3543 43.188L25.7104 43.1886C25.8794 43.1886 26.0177 43.0504 26.0177 42.8814C26.0177 42.7124 25.8794 42.5741 25.7104 42.5741L21.9991 42.5735L20.4627 39.913L21.3906 38.3072H24.4622L26.3188 41.5213C26.3753 41.6197 26.4786 41.675 26.5855 41.675C26.6377 41.675 26.6906 41.6621 26.7391 41.6344C26.8854 41.549 26.9358 41.3615 26.8516 41.2141L25.1683 38.3078H26.8166L27.6475 39.7459C27.7052 39.8448 27.8085 39.8995 27.9142 39.8995C27.967 39.8995 28.0199 39.8866 28.0678 39.859C28.2153 39.7735 28.2657 39.5867 28.1815 39.4386L27.5289 38.3078H29.6933C29.8617 38.3078 30.0006 38.1695 30.0006 38.0005C29.9963 37.8309 29.8574 37.6932 29.6884 37.6932ZM20.6753 38.3078L20.1025 39.2997L19.9249 39.607H19.5709H18.4242H18.0696L17.8919 39.2997L17.3204 38.3078L17.1428 38.0005L17.3204 37.6932L17.8932 36.7013L18.0708 36.3941H18.4254H19.5709H19.9261L20.1037 36.7013L20.6753 37.6932L20.8529 38.0005L20.6753 38.3078Z" fill="#EFF9F0"/>
</g>
<g clip-path="url(#clip1)">
<path d="M41.8159 34.3187H40.5365L40.9222 33.6509C40.9727 33.5641 40.9432 33.453 40.8557 33.4025C40.7678 33.352 40.6571 33.3822 40.6073 33.4693L40.1171 34.3187H39.1438L40.1349 32.6014C40.1853 32.515 40.1559 32.4035 40.0684 32.3534C39.9813 32.3033 39.8705 32.3327 39.82 32.4198L38.7233 34.3187H36.9076L36.3599 33.3695L37.2678 31.797H39.4609C39.5604 31.797 39.6424 31.7157 39.6424 31.6155C39.6424 31.5156 39.5604 31.4339 39.4609 31.4339H37.477L37.9636 30.5917L38.9437 30.5921C39.044 30.5921 39.1253 30.5108 39.1253 30.4105C39.1253 30.3107 39.044 30.229 38.9437 30.229L38.1728 30.2286L38.8126 29.1203C38.8631 29.0335 38.8333 28.9223 38.7462 28.8722C38.6594 28.8214 38.5483 28.8512 38.4978 28.9387L37.8576 30.047L37.4719 29.3792C37.4218 29.2928 37.3107 29.2626 37.2239 29.3127C37.1371 29.3628 37.1073 29.474 37.157 29.5608L37.6473 30.4102L37.1614 31.2523L36.1704 29.535C36.1203 29.4478 36.0091 29.418 35.9223 29.4682C35.8355 29.5186 35.8058 29.6294 35.8555 29.7165L36.9522 31.6151L36.0444 33.1879H34.948L34.0401 31.6155L35.1365 29.7165C35.1866 29.6298 35.1568 29.5186 35.07 29.4682C34.9829 29.418 34.8725 29.4478 34.822 29.535L33.8306 31.2523L33.3443 30.4102L33.835 29.5604C33.8851 29.474 33.8553 29.3625 33.7685 29.3124C33.6817 29.2619 33.5706 29.292 33.5205 29.3788L33.1348 30.047L32.4964 28.9383C32.4459 28.8512 32.3348 28.8218 32.2484 28.8719C32.1616 28.922 32.1318 29.0327 32.1819 29.1199L32.8218 30.2282H32.0512C31.9509 30.2282 31.8696 30.3099 31.8696 30.4098C31.8696 30.51 31.9509 30.5914 32.0512 30.5914H33.0317L33.5179 31.4335H31.5351C31.4349 31.4335 31.3536 31.5149 31.3536 31.6151C31.3536 31.7153 31.4349 31.7967 31.5351 31.7967H33.7278L34.6357 33.3695L34.087 34.3187H32.2716L31.1742 32.4198C31.1241 32.333 31.0126 32.3033 30.9261 32.3534C30.8393 32.4035 30.8096 32.5146 30.8597 32.6014L31.8522 34.3187H30.8797L30.3894 33.4697C30.3389 33.3825 30.2278 33.3531 30.1414 33.4029C30.0546 33.4534 30.0248 33.5641 30.0749 33.6513L30.4606 34.3187H29.1816C29.0813 34.3187 29 34.4001 29 34.5003C29 34.6002 29.0813 34.6819 29.1816 34.6819H30.4609L30.0753 35.3501C30.0252 35.4369 30.0549 35.548 30.1417 35.5985C30.1704 35.6148 30.2017 35.6224 30.2325 35.6224C30.2954 35.6224 30.3564 35.5898 30.3901 35.5317L30.8804 34.6819H31.8536L30.8615 36.3992C30.8114 36.4856 30.8412 36.5971 30.928 36.6476C30.9566 36.6639 30.9879 36.6716 31.0187 36.6716C31.0816 36.6716 31.1426 36.6393 31.1764 36.5808L32.2734 34.6819H34.0888L34.6368 35.6304L33.7289 37.2032H31.5366C31.4364 37.2032 31.355 37.2849 31.355 37.3848C31.355 37.4847 31.4364 37.5664 31.5366 37.5664H33.519L33.0328 38.4085H32.0519C31.9517 38.4085 31.8703 38.4899 31.8703 38.5901C31.8703 38.69 31.9517 38.7717 32.0519 38.7717H32.8232L32.1834 39.8796C32.1332 39.9661 32.163 40.0775 32.2498 40.128C32.2785 40.1444 32.3097 40.152 32.3406 40.152C32.4034 40.152 32.4644 40.1197 32.4982 40.0612L33.1381 38.9529L33.5237 39.6211C33.5575 39.6795 33.6185 39.7119 33.6814 39.7119C33.7122 39.7119 33.7434 39.7042 33.7721 39.6879C33.8589 39.6374 33.8887 39.5267 33.8386 39.4395L33.3476 38.5897L33.8339 37.7476L34.8253 39.4649C34.859 39.5234 34.9201 39.5557 34.9829 39.5557C35.0137 39.5557 35.045 39.5481 35.0737 39.5317C35.1605 39.4813 35.1902 39.3709 35.1401 39.2833L34.0434 37.3844L34.9513 35.8127H36.048L36.9559 37.3848L35.8588 39.2837C35.8087 39.3705 35.8385 39.4816 35.9252 39.5321C35.9536 39.5484 35.9848 39.5561 36.016 39.5561C36.0792 39.5561 36.1402 39.5237 36.1736 39.4653L37.165 37.7479L37.6517 38.5901L37.1614 39.4391C37.1113 39.5256 37.1411 39.637 37.2282 39.6875C37.2573 39.7039 37.2885 39.7115 37.319 39.7115C37.3822 39.7115 37.4432 39.6784 37.477 39.6207L37.8626 38.9532L38.5029 40.0616C38.5366 40.12 38.5977 40.1524 38.6608 40.1524C38.6914 40.1524 38.7226 40.1447 38.7516 40.1284C38.8377 40.0779 38.8675 39.9675 38.8185 39.88L38.1779 38.7709H38.9488C39.0491 38.7709 39.1304 38.6896 39.1304 38.5894C39.1304 38.4895 39.0491 38.4078 38.9488 38.4078H37.968L37.4821 37.5656L39.4652 37.566C39.5651 37.566 39.6468 37.4843 39.6468 37.3844C39.6468 37.2846 39.5651 37.2029 39.4652 37.2029L37.2722 37.2025L36.3643 35.6304L36.9126 34.6815H38.7277L39.8247 36.5808C39.8581 36.6389 39.9192 36.6716 39.9823 36.6716C40.0132 36.6716 40.0444 36.6639 40.0731 36.6476C40.1596 36.5971 40.1893 36.4864 40.1396 36.3992L39.1449 34.6819H40.1189L40.6099 35.5317C40.644 35.5901 40.705 35.6224 40.7675 35.6224C40.7987 35.6224 40.8299 35.6148 40.8583 35.5985C40.9454 35.548 40.9752 35.4376 40.9254 35.3501L40.5398 34.6819H41.8188C41.9183 34.6819 42.0004 34.6002 42.0004 34.5003C41.9978 34.4001 41.9157 34.3187 41.8159 34.3187ZM36.4899 34.6819L36.1515 35.268L36.0465 35.4496H35.8374H35.1597H34.9502L34.8452 35.268L34.5075 34.6819L34.4026 34.5003L34.5075 34.3187L34.846 33.7326L34.9509 33.551H35.1605H35.8374H36.0473L36.1522 33.7326L36.4899 34.3187L36.5949 34.5003L36.4899 34.6819Z" fill="#EFF9F0"/>
</g>
<defs>
<clipPath id="clip0">
<rect width="22" height="22" fill="white" transform="translate(8 27)"/>
</clipPath>
<clipPath id="clip1">
<rect width="13" height="13" fill="white" transform="translate(29 28)"/>
</clipPath>
</defs>
</svg>
