<svg width="65" height="53" viewBox="0 0 65 53" fill="none" xmlns="http://www.w3.org/2000/svg">
<path d="M42.9674 19.9999C42.5478 20.0003 41.4165 19.9436 41 19.9999C39.8694 15.8581 37.2956 13.0088 33.4444 12.9999C32.4858 12.9987 31.2393 13.1489 30.3333 13.4999C28.0906 8.04414 23.1063 5.20599 17.8889 6.4999C12.6708 7.79419 9.88513 11.9893 9.8889 17.9999C9.88924 19.0387 10.1076 20.9934 10.3333 21.9999C5.36217 22.8538 0.632694 26.8195 1.00226 32.4618C1.37114 38.1044 5.53706 42.4782 10.5658 42.5033H16.5L14 49.5L20.5 42.5033H42.9674C48.7711 42.5033 53.4758 37.2101 53.4758 30.6808C53.4758 24.1516 48.7711 19.9999 42.9674 19.9999ZM42.9674 41.4999L20.6003 41.8426L14.0567 49.3414L16.5 42L10.3333 41.9999C8.05015 41.9999 5.78396 40.9785 4.11111 38.9999C2.5276 37.127 1.47576 34.3616 1.44444 31.9999C1.3804 27.1433 6.01705 22.6236 10.3333 22.4999C10.6135 22.491 10.3333 22.4999 10.7778 22.4999C10.8901 22.4999 10.872 21.797 10.7778 21.4999C9.03955 15.9039 11.6025 9.52322 16.5556 7.4999C21.5082 5.47658 27.363 8.56339 29.2211 14.1105C29.3061 14.3679 29.4821 14.5732 29.7075 14.6781C29.9332 14.7829 30.187 14.7771 30.4083 14.6623C31.3252 14.1825 32.3236 13.934 33.3343 13.9328C36.6662 13.9398 39.5354 16.58 40.2009 20.2529C40.2961 20.7869 40.7585 21.1322 41.2325 21.0243C41.8035 20.8956 42.3844 20.8301 42.9674 20.8293C47.8039 20.8293 52.5556 25.2405 52.5556 30.6808C52.5556 36.122 47.8039 41.4999 42.9674 41.4999Z" fill="#EFF9F0"/>
<path d="M27.1143 35.27C27.0243 35.09 26.8893 35 26.7093 35H21.3993L26.6643 26.675C26.7543 26.54 26.7543 26.36 26.6643 26.225C26.5743 26.09 26.4393 26 26.2593 26H19.0593C18.8793 26 18.7443 26.09 18.6543 26.225L11.9043 39.725C11.8143 39.86 11.8143 40.04 11.9043 40.175C11.9943 40.31 12.1743 40.4 12.3093 40.4H16.9443L11.9043 52.415C11.8143 52.595 11.9043 52.82 12.0843 52.955C12.1293 53 12.2193 53 12.3093 53C12.4443 53 12.5793 52.955 12.6693 52.865L27.0693 35.765C27.1593 35.63 27.2043 35.45 27.1143 35.27ZM13.8843 49.985L18.0243 40.085C18.0693 39.95 18.0693 39.815 17.9793 39.68C17.8893 39.59 17.7543 39.5001 17.6193 39.5001H13.0293L19.3293 26.9H25.4493L20.1393 35.225C20.0493 35.36 20.0493 35.54 20.1393 35.675C20.2293 35.81 20.3643 35.9 20.5443 35.9H25.7643L13.8843 49.985Z" fill="#EFF9F0"/>
<path d="M53.6522 13.81C53.2326 13.8103 52.1013 13.7537 51.6848 13.81C50.5542 9.66814 47.9805 6.81882 44.1293 6.80996C43.1706 6.8088 41.9241 6.95893 41.0182 7.30996C38.7754 1.85419 33.7912 -0.98395 28.5737 0.309959C24.9608 1.2061 22.514 3.49283 21.3518 6.80996C21.2255 7.17036 20.9307 6.79598 20.9052 6.72848C21.4445 7 21.3509 5.41311 21.3518 6.80996C21.3518 7.02185 21.4075 6.87595 21.4445 6.89464C21.5887 6.96755 21.8889 6.5 21.9092 6.80996C19.2223 5 22.5702 7.9229 21.9092 6.80996C22.2554 6.69453 16.3231 6.78491 21.3518 6.80996L25.8889 8.5L29.8889 14L33.4445 13.5L36.5556 14L38.7778 16.5L41 20.5L46.7778 21L52.1112 25.5L52.9959 30.9274L51.6848 36.3133H53.6522C59.456 36.3133 64.1607 31.0202 64.1607 24.4909C64.1607 17.9616 59.456 13.81 53.6522 13.81ZM53.6522 35.31H52.1112L53 30.9067L52.5556 26.5L47.6667 21.5L41 20L37 14L29.8889 13.5L25.8889 8.5L21.9092 6.80996C21.5638 6.36623 21.7541 6.65312 21.7238 6.60517C21.5961 6.40346 23.2607 8.40845 21.9092 6.80996C21.5233 6.35354 21.7188 6.58568 21.6885 6.52528C21.5943 6.33782 22.3922 7.13534 21.9092 6.80996C24.1112 7 17.4925 6.81822 21.8088 6.69453C22.089 6.68567 21.4648 6.80996 21.9092 6.80996C22.0215 6.80996 21.903 6.99162 21.8088 6.69453C21.5467 5.85082 21.7008 6.46922 21.7203 6.58474C21.7489 6.75372 21.7478 6.74247 21.8643 6.89168C21.9378 6.98584 22.5502 7.38544 21.9092 6.80996C22.9642 4.33467 24.816 2.30033 27.2404 1.30996C32.1931 -0.713363 38.0479 2.37345 39.906 7.92054C39.9909 8.17793 40.167 8.38331 40.3924 8.48811C40.6181 8.59292 40.8719 8.58714 41.0931 8.47231C42.01 7.99259 43.0084 7.74406 44.0192 7.7429C47.3511 7.74984 50.2203 10.3901 50.8858 14.0629C50.981 14.597 51.4434 14.9422 51.9174 14.8344C52.4884 14.7057 53.0692 14.6402 53.6522 14.6394C58.4888 14.6394 63.2404 19.0505 63.2404 24.4909C63.2404 29.932 58.4888 35.31 53.6522 35.31Z" fill="#EFF9F0"/>
</svg>
